<svg width="38" height="19" viewBox="0 0 38 19" fill="none" xmlns="http://www.w3.org/2000/svg">
<path d="M28.3294 18.9387C33.1844 18.9387 37.1341 14.6927 37.1341 9.47376C37.1341 4.25472 33.1844 0.00864916 28.3294 0.00864916C28.3294 0.00864916 25.441 -0.0967798 23.339 1.49966C21.4891 2.75731 18.5918 6.62841 18.5918 6.62841C18.6796 6.62841 22.8318 5.26693 25.783 4.08938C27.2396 3.50823 28.6784 3.58155 28.7218 3.58487C31.5676 3.80188 33.8212 6.36034 33.8212 9.47376C33.8212 12.7289 31.3576 15.3774 28.3294 15.3774V18.9387Z" fill="black"/>
<path d="M28.3043 18.9289C28.3067 18.9289 28.3089 18.9289 28.3111 18.9289C28.3111 18.9289 31.1743 19.2175 34.0421 16.7677C38.0523 12.6482 37.4825 8.00329 36.2016 5.16384C34.9901 2.47842 32.9404 1.4133 32.9404 1.4133C32.9023 1.41318 37.6405 4.55882 35.3064 10.7578C34.39 12.8731 32.067 14.1137 30.8358 14.7259C29.458 15.4109 27.9982 15.3569 27.9554 15.3539C27.0622 15.2917 25.7357 15.0129 25.1108 14.4043L25.0286 14.3242L24.9371 14.2566C23.9391 13.5189 22.0768 11.3533 20.0767 8.60486L19.5793 7.92123H19.5387C18.2275 6.13349 16.4918 3.84001 14.1892 1.80808C12.3037 0.0604411 9.23916 0.0042204 8.85762 0.0042204C8.85533 0.0042204 8.85316 0.0042204 8.8511 0.0042204L8.85373 1.78606L8.85179 3.56555C9.71008 3.56937 11.3378 3.83435 12.0512 4.52905L12.1333 4.60914L12.2248 4.67668C13.2777 5.45479 15.3157 7.85369 17.4169 10.7879L17.9142 11.4824H17.9704C19.3351 13.3148 21.4138 15.9335 22.9728 17.1254C24.858 18.8727 27.9222 18.9289 28.3043 18.9289Z" fill="black"/>
<path d="M8.85373 18.9387V15.3774C5.82555 15.3774 3.3619 12.7289 3.3619 9.47376C3.3619 6.21838 5.82555 3.56998 8.85373 3.56998C8.85373 3.56998 9.68937 3.56199 10.8738 3.89414C11.1322 3.9666 12.2576 4.43039 13.9742 6.51658C16.1495 8.77647 19.0149 12.1073 21.6188 13.8046C25.7444 16.4938 28.7583 15.3145 28.7583 15.3145C28.7583 15.3145 27.4078 15.4659 25.9217 14.9364C24.7068 14.2689 23.1087 12.7013 21.4049 10.3711C19.2613 7.23527 14.9238 2.1609 13.4715 1.25251C11.189 -0.187446 8.77717 0.0088952 8.75577 0.00914124C3.94577 0.0658539 0.0488746 4.28978 0.0488746 9.47376C0.0488746 14.6927 3.99875 18.9387 8.85373 18.9387Z" fill="black"/>
<path d="M8.85774 18.9289C8.90866 18.9289 9.0072 18.9279 9.14429 18.922C10.0355 18.8839 12.5552 18.6398 14.1894 17.1253C15.8904 15.8245 20.0768 10.3284 20.0768 10.3284C22.0769 7.57985 23.9393 5.41419 24.9372 4.67668L25.0287 4.60902L25.1109 4.52893C25.8593 3.80015 27.5779 3.56568 28.2996 3.56568C28.3016 3.56568 28.3035 3.56568 28.3055 3.56568L28.311 0.0042204C28.3089 0.0042204 28.3066 0.0042204 28.3042 0.0042204C27.9227 0.0042204 24.8581 0.060318 22.9727 1.80771C21.4137 2.99966 19.3349 5.61816 17.9703 7.45068L17.4168 8.14525C15.3157 11.0797 13.2776 13.4783 12.2248 14.2564L12.1332 14.324L12.0509 14.4042C11.3024 15.133 9.58386 15.3676 8.8622 15.3676C8.86014 15.3676 8.8582 15.3676 8.85625 15.3676C8.85625 15.3676 4.84171 15.1578 2.96491 12.6236C-0.815601 6.10089 3.07248 2.34051 3.07248 2.34051C3.07305 2.34051 1.21856 3.88159 0.426067 6.73014C-0.389543 9.6621 -0.437722 13.9627 4.01912 17.4752C6.158 19.1068 8.85671 18.9289 8.85774 18.9289Z" fill="black"/>
<path d="M28.7218 3.58487C28.8113 3.59176 28.9003 3.60086 28.9886 3.6123V0.0349756C28.7709 0.0176297 28.5511 0.00864916 28.3293 0.00864916C28.3293 0.00864916 25.4409 -0.133686 23.3389 1.46276C20.87 3.44758 18.5917 6.62841 18.5917 6.62841C17.5169 7.93636 14.6223 12.1766 12.8147 13.7511C10.6325 16.0682 7.18921 15.1002 7.18921 15.1002C7.224 15.1002 10.5867 17.0031 15.9635 13.0665C20.2712 10.0382 24.003 4.79958 25.7829 4.08938C27.2396 3.50823 28.6784 3.58155 28.7218 3.58487Z" fill="black"/>
</svg>
