<svg width="56" height="502" viewBox="0 0 56 502" fill="none" xmlns="http://www.w3.org/2000/svg">
<g opacity="0.2">
<path d="M55.8976 119.217C55.8976 53.6177 -1.47469 0.249023 -71.9919 0.249023C-142.511 0.249023 -199.883 53.6177 -199.883 119.217C-199.883 119.217 -201.308 158.244 -179.737 186.646C-162.744 211.642 -110.438 250.79 -110.438 250.79C-110.438 249.604 -128.834 193.5 -144.745 153.624C-152.597 133.943 -151.607 114.501 -151.562 113.915C-148.63 75.4636 -114.06 45.0126 -71.9919 45.0126C-28.009 45.0126 7.77733 78.3011 7.77733 119.217H55.8976Z" fill="black"/>
<path d="M55.7646 119.556C55.7646 119.524 55.7646 119.494 55.7646 119.465C55.7646 119.465 59.6642 80.7767 26.5623 42.0282C-29.0995 -12.1569 -91.8607 -4.45786 -130.227 12.8498C-166.512 29.2188 -180.904 56.9144 -180.904 56.9144C-180.905 57.4293 -138.402 -6.59329 -54.6415 24.9448C-26.0609 37.3275 -9.29721 68.7156 -1.02589 85.3506C8.22946 103.968 7.49974 123.692 7.45984 124.271C6.61874 136.34 2.85211 154.263 -5.37099 162.707L-6.45309 163.817L-7.36734 165.054C-17.3341 178.538 -46.5962 203.702 -83.7324 230.727L-92.9694 237.447V237.996C-117.125 255.713 -148.114 279.166 -175.57 310.277C-199.183 335.754 -199.943 377.162 -199.943 382.317C-199.943 382.348 -199.943 382.377 -199.943 382.405L-175.867 382.37L-151.823 382.396C-151.771 370.799 -148.191 348.806 -138.804 339.166L-137.722 338.056L-136.809 336.821C-126.296 322.593 -93.882 295.057 -54.2359 266.665L-44.8509 259.945V259.186C-20.0918 240.747 15.2907 212.66 31.3961 191.595C55.0049 166.123 55.7646 124.719 55.7646 119.556Z" fill="black"/>
<path d="M55.8976 382.37H7.77733C7.77733 423.286 -28.009 456.575 -71.9919 456.575C-115.978 456.575 -151.763 423.286 -151.763 382.37C-151.763 382.37 -151.871 371.079 -147.383 355.075C-146.404 351.583 -140.137 336.377 -111.949 313.182C-81.4135 283.791 -36.4084 245.073 -13.4744 209.89C22.8622 154.145 6.92793 113.422 6.92793 113.422C6.92793 113.422 8.9725 131.67 1.81821 151.75C-7.20111 168.165 -28.3814 189.759 -59.8676 212.78C-102.238 241.744 -170.802 300.351 -183.076 319.975C-202.533 350.816 -199.88 383.404 -199.876 383.693C-199.11 448.685 -142.037 501.34 -71.9919 501.34C-1.47469 501.34 55.8976 447.969 55.8976 382.37Z" fill="black"/>
<path d="M55.7646 382.316C55.7646 381.627 55.7513 380.296 55.6715 378.444C55.1562 366.401 51.8583 332.356 31.3945 310.275C13.8179 287.291 -60.4444 230.725 -60.4444 230.725C-97.5822 203.701 -126.844 178.536 -136.809 165.053L-137.724 163.816L-138.806 162.705C-148.653 152.593 -151.821 129.372 -151.821 119.62C-151.821 119.593 -151.821 119.567 -151.821 119.541L-199.943 119.466C-199.943 119.494 -199.943 119.525 -199.943 119.558C-199.943 124.713 -199.185 166.121 -175.575 191.596C-159.469 212.661 -124.088 240.75 -99.3275 259.188L-89.9425 266.667C-50.2931 295.057 -17.8827 322.595 -7.369 336.821L-6.45644 338.058L-5.37265 339.169C4.47446 349.284 7.64438 372.504 7.64438 382.255C7.64438 382.283 7.64438 382.309 7.64438 382.336C7.64438 382.336 4.81024 436.579 -29.4319 461.939C-117.566 513.02 -168.375 460.485 -168.375 460.485C-168.375 460.477 -147.552 485.535 -109.063 496.243C-69.4471 507.263 -11.3384 507.914 36.1219 447.694C58.1682 418.794 55.7646 382.329 55.7646 382.316Z" fill="black"/>
<path d="M-151.562 113.915C-151.469 112.706 -151.346 111.503 -151.191 110.311H-199.527C-199.762 113.252 -199.883 116.222 -199.883 119.219C-199.883 119.219 -201.806 158.246 -180.235 186.648C-153.417 220.008 -110.438 250.791 -110.438 250.791C-92.765 265.314 -35.4709 304.426 -14.1975 328.849C17.1108 358.336 4.0323 404.86 4.0323 404.86C4.0323 404.39 29.7439 358.954 -23.4479 286.303C-64.3656 228.098 -135.149 177.675 -144.745 153.625C-152.597 133.943 -151.607 114.501 -151.562 113.915Z" fill="black"/>
</g>
</svg>
